<?xml version="1.0" encoding="UTF-8" standalone="no"?>
<!-- Created with Inkscape (http://www.inkscape.org/) -->

<svg
   width="97.201683mm"
   height="76.914375mm"
   viewBox="0 0 97.201683 76.914375"
   version="1.1"
   id="svg1134"
   inkscape:version="1.1.2 (0a00cf5339, 2022-02-04)"
   sodipodi:docname="quetzalcoatl.svg"
   xmlns:inkscape="http://www.inkscape.org/namespaces/inkscape"
   xmlns:sodipodi="http://sodipodi.sourceforge.net/DTD/sodipodi-0.dtd"
   xmlns="http://www.w3.org/2000/svg"
   xmlns:svg="http://www.w3.org/2000/svg">
  <sodipodi:namedview
     id="namedview1136"
     pagecolor="#ffffff"
     bordercolor="#666666"
     borderopacity="1.0"
     inkscape:pageshadow="2"
     inkscape:pageopacity="0.0"
     inkscape:pagecheckerboard="0"
     inkscape:document-units="mm"
     showgrid="false"
     fit-margin-top="0"
     fit-margin-left="0"
     fit-margin-right="0"
     fit-margin-bottom="0"
     inkscape:zoom="2.5750026"
     inkscape:cx="156.31052"
     inkscape:cy="96.504755"
     inkscape:window-width="2486"
     inkscape:window-height="1376"
     inkscape:window-x="74"
     inkscape:window-y="27"
     inkscape:window-maximized="1"
     inkscape:current-layer="layer1" />
  <defs
     id="defs1131" />
  <g
     inkscape:label="Calque 1"
     inkscape:groupmode="layer"
     id="layer1"
     transform="translate(20.09876,0.45440511)">
    <path
       id="path4"
       style="clip-rule:evenodd;fill:#00241a;fill-rule:evenodd;stroke-width:0.999999"
       class="st0"
       d="m 238.277,0 c 0,0 -25.101,5.59961 -38.601,20.0996 -13.5,14.5 -17.5,34.4004 -17.5,34.4004 0,0 31.6,-9.2996 53,8.9004 21.3,17.9 3.2,55.4996 1,59.6996 -2.2,4.2 -4.4,11.2 -4.6,26.9 -0.2,15.7 -3.999,40.6 -14.099,52.5 -10.1,11.9 -52.901,19.1 -52.901,19.1 0,0 -6.299,27.901 4.201,45.201 10.5,17.3 38,23.898 38,23.898 0,0 -8.3,-8.999 -9.9,-20.299 -1.6,-11.3 4,-29.599 4,-29.599 0,0 4,11.199 18.9,22.299 14.8,11.1 44.399,11.3 44.399,11.3 0,0 -0.599,0 -8.199,-13.5 -7.6,-13.4 -20.301,-59.701 -20.301,-59.701 0,0 17.9,5.201 17.9,5.201 17.9,5.2 62.901,-10.9 62.901,-10.9 0,0 -6.4,-10.7 -21.1,-28 -13.392,-15.869 -37.796,-28.905 -41.785,-30.977 -0.626,-0.173 -0.815,-0.423 -0.815,-0.423 0,0 0.455,0.237 0.815,0.423 1.701,0.472 6.725,0.359 20.685,-7.023 19.1,-10 58.7,-38 58.7,-38 0,0 -15.7,-11.6992 -15.7,-11.6992 -15.7,-11.7 -55.5,-10.5 -55.5,-10.5 0,0 2.4,-5.5008 19.7,-28.8008 17.3,-23.3 27,-26.0996 27,-26.0996 0,0 -31.801,-7.7004 -52.301,2.5996 -20.6,10.3 -29.6,32.8008 -29.6,32.8008 0,0 0.001,-12.0004 0.801,-24.9004 0.8,-12.8 10.9,-24.9004 10.9,-24.9004 z m -13.201,8.59961 c 0,0 -5.099,3.50119 -11.699,15.20119 -6.6,11.6 -6,21.7988 -6,21.7988 0,0 0,2.3008 0,2.3008 0,0 -7.9,1 -7.9,1 0,0 1.199,-8.5008 6.699,-19.8008 5.5,-11.3 18.9,-20.49999 18.9,-20.49999 z m 71,7.80079 c 0,0 -17.999,3.9004 -32.099,13.9004 -14.1,10 -21.2,31.5996 -21.2,31.5996 0,0 -6,-4.3008 -6,-4.3008 0,0 10.799,-23.1004 24.899,-31.4004 14.1,-8.4 34.4,-9.7988 34.4,-9.7988 z M 124.238,43.4512 C 107.362,43.4931 91.6758,51 91.6758,51 c 0,0 41.0002,-7.9992 54.5002,10.3008 13.5,18.3 28.801,53.1002 48.101,61.5002 19.3,8.4 32,6.199 38.6,2.599 0,0 -27.801,1.8 -41.201,-13.5 -13.5,-15.2996 -32.399,-59.5 -53.299,-66.4 -4.594,-1.4875 -9.413,-2.0606 -14.139,-2.0488 z m 185.996,6.998 c -19,0.2197 -34.558,7.25 -34.558,7.25 0,0 -6.6,9.3008 -6.6,9.3008 0,0 2.601,-0.1992 21.301,0.8008 18.7,1 40.4,18.2988 40.4,18.2988 0,0 24.7,-12.6992 24.7,-12.6992 0,0 -20.701,-22.1004 -41.401,-22.9004 -1.294,-0.05 -2.575,-0.0654 -3.842,-0.0508 z m -194.658,3.25 c -31.7998,0.4 -45.799,-0.5996 -46.699,2.9004 -0.8,3.5 -0.3008,7.7012 -0.3008,7.7012 0,0 6.1996,0.3 6.5996,3.5 0.4,3.2 -6.1996,2.5984 -11.5996,1.8984 -5.3,-0.7 -4.8004,-4.9988 -1.9004,-5.2988 2.9,-0.3 1.7012,-4.5008 1.7012,-6.3008 0,-1.8 -5.8004,-0.2988 -6.4004,3.7012 -0.6,4 -0.3008,8.5 -0.3008,8.5 0,0 -1.8985,0.0996 -1.8985,0.0996 0,0 -0.4,-7.9996 -0.5,-9.5996 -0.1,-1.5 -4.0007,-0.4 -4.8007,3 -0.8,3.4 -1.1004,4.9 0.0996,4.5 1.2,-0.4 2.2011,-0.4004 2.2011,-0.4004 0,0 1.4,3.6992 0,3.6992 -1.4,0 -4.5011,-0.0996 -5.2011,-2.5996 -0.7,-2.5 -0.5996,-7.9004 -0.5996,-7.9004 0,0 -2.9004,0.2012 -2.9004,0.2012 0,0 -1.0004,9.9992 4.5996,12.6992 5.6,2.7 15.8015,4.0004 29.1015,-2.0996 13.3,-6.1 21.8993,-4.9996 29.6997,-0.0996 7.7,4.9 12.099,7.1992 12.099,7.1992 0,0 -3.4,-13.5008 1,-17.8008 4.4,-4.3 9.7,-2.6984 10.6,5.1016 0.9,7.8 -0.499,15.5992 -3.399,16.1992 -2.9,0.6 -5.3,-0.5 -5.3,-0.5 0,0 3.8,3.2008 15.3,8.8008 11.5,5.6 26.299,20.6992 26.299,20.6992 0,0 -49.7,-32.1996 -58.5,-36.5996 -8.7998,-4.4 -18.0998,-4.5996 -30.9998,1.4004 -12.9,6 -22,3.8992 -27.5,-0.3008 -5.4,-4.2 -12.3004,-4.7004 -19.9004,0.5996 -7.6,5.3 -11,17.0996 -11,17.0996 0,0 43.4015,-15.2992 77.6015,-11.6992 34.1997,3.8 60.8997,37.4 93.9997,41.6 0,0 -14.9,-14.099 -22.9,-26.2992 -8,-12.3 -16.501,-44.0016 -48.301,-43.6016 z m 42.301,1.7012 c 0,0 13.699,11.2988 24.699,30.7988 11.1,19.4998 25.501,31.4008 43.801,27.2008 18.3,-4.2 26.8,-38.2008 2.4,-51.7008 -24.3,-13.5 -40.001,6.6016 -33.601,23.1016 6.4,16.5002 25.7,19.3002 34,14.5 8.2,-4.8 5.6,-20.7 0,-23.5 -5.6,-2.8 -3,4.3984 -3,4.3984 0,0 0.601,10.9012 -11.899,9.2012 -12.5,-1.6 -9.9,-18.4996 1.6,-21.0996 11.5,-2.6 31.1,9.9984 18.9,33.3982 -12.2,23.4 -38.6,-4.399 -46.9,-17.699 -8.1,-13.3 -30,-28.5996 -30,-28.5996 z M 200.076,58 c 0,0 -30.599,0.5996 -30.599,0.5996 0,0 20.699,22.7012 20.699,22.7012 0,0 -1.399,-2.4016 -0.399,-8.6016 1,-6.3 10.299,-14.6992 10.299,-14.6992 z M 78.6523,84.9219 c -3.4891,0.0024 -7.1406,0.1875 -10.9765,0.5781 -49.1,5 -65.00002,17.699 -65.00002,17.699 0,0 -0.59961,11.401 -0.59961,11.401 0,0 14.09963,-13.899 49.09963,-20.2992 35,-6.4 49.9002,-2.2008 74.4002,12.6992 24.5,14.9 52.1,28.199 69,30.199 16.9,2 14.1,5.802 15.1,15.102 1,9.2 0.001,13.899 -47.699,15.699 -47.7,1.8 -88.5012,-0.4 -110.8012,3.4 -22.3,3.8 -15.4996,3.2 -21.0996,3.2 -5.6,0 -6.1992,0.201 -6.1992,0.201 0,0 12.6992,-3.901 12.6992,-3.901 0,0 -1.4004,-4.8 -1.4004,-4.8 0,0 -15,1.801 -16.5,9.701 -1.5,7.8 -0.3985,17.099 -0.3985,17.099 0,0 -3.8015,-14.5 -1.1015,-19 2.7,-4.5 4.4004,-5.4 4.4004,-5.4 0,0 -9.7,3.199 -11.5,8.699 -1.80003,5.5 -0.19925,18.102 -0.19925,18.102 0,0 -3.90039,-11.4 -2.90039,-16 1,-4.6 2,-5.801 2,-5.801 0,0 -8.500389,4.399 -8.9003881,12.199 -0.3999989,7.7 0.9003901,14.5 0.9003901,14.5 0,0 7.299608,1.101 10.099638,8.801 2.8,7.6 9.2996,24.1 29.5996,22.9 20.3,-1.2 26.5015,-11.3 70.6012,-11.3 44,0 57.9,-2.2 85.1,-11.1 27.1,-8.9 26.5,-18.5 29.6,-36.6 3,-18.1 1.199,-40.201 1.199,-40.201 0,0 -22.299,3.801 -56.899,-9.799 C 138.38,110.271 119.825,84.8927 78.6523,84.9219 Z M 302.24,89.2168 c 13.586,-0.0295 23.936,1.4824 23.936,1.4824 0,0 -22.899,-0.7996 -43.399,5.4004 -20.5,6.2004 -36.4,17.0994 -36.4,17.0994 0,0 3,-12.398 3,-12.398 0,0 11.1,-7.301 33,-10.301 6.844,-0.9375 13.688,-1.2698 19.863,-1.2832 z M 76.209,93.1992 c -1.3524,0.0137 -2.6973,0.0793 -4.0332,0.2012 -28.7,2.4 -44.1992,7.0006 -69.69924,23.4006 0,0 2.40039,2.398 2.40039,2.398 0,0 11.29885,-4.199 11.29885,-4.199 0,0 28.8008,4.801 28.8008,4.801 0,0 -0.8008,7.799 -0.8008,7.799 0,0 7.6015,3.201 7.6015,3.201 0,0 -6.4,-15.501 -6,-23.301 0,0 0.3985,-7.8008 0.3985,-7.8008 0,0 11.1015,-4 11.1015,-4 0,0 37.3985,4.6018 37.3985,4.6018 0,0 -6.2,4.799 -7,12.099 -0.8,7.2 0,23.1 0,23.1 0,0 3.8015,-7.199 8.6015,-9.199 4.7997,-2 8.7987,-1 8.7987,-1 0,0 1.401,-12.901 1.401,-12.901 0,0 12.099,-4 12.099,-4 0,0 20.701,12.7 20.701,12.7 0,0 -2.001,11.3 -2.601,17.5 -0.6,6.2 0.201,8.4 0.201,8.4 0,0 7.199,-5.999 10.699,-7.199 3.4,-1.2 6.6,0.398 6.6,0.398 0,0 -1,-5.199 -1,-5.199 0,0 12.9,-3 12.9,-3 0,0 18.1,8.6 18.1,8.6 0,0 -1.399,3.6 -1.399,10.3 0,6.6 0.399,13.5 0.399,13.5 0,0 20.701,-2.001 23.701,-6.201 3,-4.2 -2,-15.5 -2,-15.5 0,0 -29.4,-7.199 -50.5,-18.099 -20.111,-10.389 -50.67,-31.6789 -78.168,-31.4008 z m -16.0332,7.4998 c 0,0 -0.9996,13.101 1.4004,21.701 2.4,8.6 5.2011,14.5 5.2011,14.5 0,0 -7.4,-4.601 -9.5,-18.701 -2,-14.1 -2.4003,-16.898 -2.4003,-16.898 0,0 -5.8008,2.398 -5.8008,2.398 0,0 -3.2996,6.601 4.4004,30.801 0,0 5.6004,6.8 12.9004,8.6 7.2,1.8 18.5,0 18.5,0 0,0 -3.6,-34.401 -1,-37.401 0,0 2.5996,-3 2.5996,-3 z M 118.477,111.9 c 0,0 -7.6,2.7 -7.6,2.7 0,0 -1.2,10.9 2.6,25.3 3.8,14.5 12.9,23.1 12.9,23.1 0,0 8,-0.199 8,-0.199 0,0 -3.4,-13.702 -2.6,-25.102 0.8,-11.5 3,-15.099 3,-15.099 z m 185.152,4.678 c -0.43,0.006 -0.652,0.022 -0.652,0.022 -9.9,8.9 -42,21.099 -42,21.099 0,0 0.6,10e-4 11.9,6.801 11.3,6.8 31.6,27.301 31.6,27.301 30.1,4 62.9,-16.901 62.9,-16.901 0,0 -10.7,-17.5 -30.4,-28.4 -17.238,-9.537 -30.342,-9.964 -33.348,-9.922 z M 16.4766,119.4 c 0,0 1.1992,8.599 3.1992,20.299 2,11.7 3.2012,12.901 3.2012,12.901 0,0 -6.5997,3.201 -6.5997,3.201 0,0 -8.20113,-12.101 -8.70113,-22.301 -0.4,-10.3 -0.79883,-12.1 -0.79883,-12.1 0,0 -2.40039,1 -2.40039,1 0,0 1.39922,28.6 10.69925,36 9.2,7.4 9.9004,7.401 9.9004,7.401 0,0 17.5,-8 17.5,-8 0,0 -2.4004,-35 -2.4004,-35 z m 90.6994,9.1 c 0,0 -9.3987,1.199 -9.3987,1.199 0,0 -5.6,3.2 -8.5,12.5 -2.8,9.2 -3.8007,23.901 -3.8007,23.901 0,0 37.4004,-0.799 37.4004,-0.799 0,0 -10.7,-11.501 -13.5,-23.301 -2.8,-11.9 -2.201,-13.5 -2.201,-13.5 z m 51.584,14.381 c -3.069,0.006 -11.777,0.431 -17.383,4.818 -6.8,5.4 -0.6,17.5 -0.6,17.5 0,0 4.6,0.602 4.6,0.602 4.6,0.6 25.1,-4.401 25.1,-4.401 0,0 -2.401,-2.599 -2.401,-2.599 -2.4,-2.6 -8.199,-15.901 -8.199,-15.901 0,0 -0.409,-0.02 -1.117,-0.019 z M 44.877,144.5 c 0,0 0.8003,10.7 1.4003,16.1 0.6,5.4 0.5997,8 0.5997,8 0,0 24.6992,-2.6 24.6992,-2.6 0,0 -5.9992,-12.5 -6.1992,-16.5 0,0 -0.2012,-4 -0.2012,-4 z m 173.299,16.699 c 0,0 0.4,11.9 -28.6,17.5 -28.9,5.7 -140.4998,4.801 -140.4998,4.801 0,0 7.4,-3.8 59.4998,-4.4 52.1,-0.6 85.3,-3.399 96.5,-7.799 11.3,-4.4 13.1,-10.102 13.1,-10.102 z m 19.801,4.701 c 0,0 16.5,9.7 37,17.5 20.6,7.8 29.4,9.2 29.4,9.2 0,0 -45,-6.401 -65.6,-18.901 z M 39.6758,176.6 c 0,0 0.5012,7.901 1.7012,10.201 1.2,2.3 6.5996,2 6.5996,2 0,0 3.7,16.5 10.5,21.5 6.9,5 29.5996,2.799 29.5996,2.799 0,0 0.2011,4.599 0.2011,4.599 0,0 -16.6,2.6 -27.5,0 -10.9,-2.6 -17.7011,-25.5 -17.7011,-25.5 0,0 -4.5996,-1.398 -6.5996,-3.398 -2,-2 -2.1993,-11.701 -2.1993,-11.701 z m 263.7012,25.701 c -32,14.3 -63.1,4 -63.1,4 0,0 6.2,19.5 6.2,19.5 0,0 15.7,17.099 35.8,23.299 20.1,6.3 59.299,-7.6 59.299,-7.6 0,0 -1.799,-4 -14.099,-17.1 -12.2,-13.1 -24.1,-22.099 -24.1,-22.099 z m -85.701,9.898 c 0,0 2.3,8.201 9.5,26.701 7.2,18.5 27.301,31.401 27.301,31.401 0,0 -15.601,-2.401 -26.301,-16.301 -10.7,-13.9 -16.299,-37.4 -16.299,-37.4 z"
       transform="matrix(0.26458333,0,0,0.26458333,-20.09876,-0.45440511)" />
  </g>
</svg>
